<svg width="512" xmlns="http://www.w3.org/2000/svg" height="512" id="screenshot-3a12afd0-fc4f-8065-8006-9927e2b22bc4" viewBox="0 0 512 512" xmlns:xlink="http://www.w3.org/1999/xlink" fill="none" version="1.1"><g id="shape-3a12afd0-fc4f-8065-8006-9927e2b22bc4" rx="0" ry="0" style="fill: rgb(0, 0, 0);"><g id="shape-3a12afd0-fc4f-8065-8006-9927e2b22bc6"><g class="fills" id="fills-3a12afd0-fc4f-8065-8006-9927e2b22bc6"><ellipse cx="256" cy="256" rx="256" ry="256" transform="matrix(1.000000, 0.000000, 0.000000, 1.000000, 0.000000, 0.000000)" style="fill: rgb(33, 37, 41); fill-opacity: 1;"/></g></g><g id="shape-3a12afd0-fc4f-8065-8006-9927e2b22bc7"><g class="frame-container-wrapper"><g class="frame-container-blur"><g class="frame-container-shadows"><g fill="none"><g class="fills" id="fills-3a12afd0-fc4f-8065-8006-9927e2b22bc7"><rect rx="0" ry="0" x="17.542798945848745" y="17.014754059342067" width="476.9144021083025" height="477.97049188131587" transform="matrix(1.000000, 0.000000, 0.000000, 1.000000, 0.000000, 0.000000)" class="frame-background"/></g><g class="frame-children"><g id="shape-3a12afd0-fc4f-8065-8006-9927e2b2cdf4"><g class="fills" id="fills-3a12afd0-fc4f-8065-8006-9927e2b2cdf4"><path d="M227.76080322265625,19.0166015625C113.57269287109375,34.55987548828125,17.542816162109375,130.26318359375,17.542816162109375,248.69915771484375C17.542816162109375,275.16387939453125,18.79510498046875,300.64434814453125,27.0791015625,326.0595703125C29.257080078125,332.751220703125,31.08599853515625,345.22906494140625,37.1334228515625,349.55572509765625C43.85211181640625,354.36444091796875,60.0350341796875,351.2855224609375,67.9947509765625,351.2855224609375L363.9810791015625,351.2855224609375C397.67352294921875,351.2855224609375,436.5936279296875,356.76318359375,469.75225830078125,351.03778076171875C481.3404541015625,349.03546142578125,485.39013671875,322.27337646484375,487.7978515625,312.6064453125C498.42877197265625,269.8822021484375,496.14947509765625,223.121826171875,482.26165771484375,181.43136596679688C447.29888916015625,76.45977783203125,339.1514892578125,3.853973388671875,227.76080322265625,19.0166015625M39.40606689453125,356.33074951171875C41.4669189453125,363.48406982421875,44.9873046875,374.0587158203125,51.730712890625,378.14666748046875C57.69940185546875,381.76617431640625,68.0150146484375,379.87420654296875,74.722412109375,379.87420654296875L387.52459716796875,379.87420654296875C417.471435546875,379.87420654296875,461.45697021484375,391.581787109375,471.61041259765625,356.33074951171875L39.40606689453125,356.33074951171875M57.90435791015625,389.964599609375C73.722412109375,417.7266845703125,110.4239501953125,408.46514892578125,138.62750244140625,408.46514892578125L367.34381103515625,408.46514892578125C396.317626953125,408.46514892578125,436.88641357421875,418.440673828125,453.11212158203125,389.964599609375L57.90435791015625,389.964599609375M86.49530029296875,423.60076904296875C101.2952880859375,444.538330078125,134.12060546875,437.05389404296875,157.1280517578125,437.05389404296875L350.52569580078125,437.05389404296875C374.07147216796875,437.05389404296875,409.4013671875,444.9932861328125,424.5234375,423.60076904296875L86.49530029296875,423.60076904296875M128.537109375,457.234619140625L128.537109375,458.9171142578125C146.19976806640625,469.56610107421875,169.06982421875,465.642578125,189.0794677734375,465.642578125L320.2545166015625,465.642578125C340.26416015625,465.642578125,365.13201904296875,470.2034912109375,382.4793701171875,458.9171142578125C362.81439208984375,450.66461181640625,328.20745849609375,457.234619140625,306.80145263671875,457.234619140625L128.537109375,457.234619140625M210.94268798828125,489.18829345703125L210.94268798828125,490.8685302734375C240.3995361328125,496.35748291015625,270.616943359375,496.35748291015625,300.07373046875,490.8685302734375L271.48504638671875,489.18829345703125L210.94268798828125,489.18829345703125" style="fill: rgb(33, 37, 41); fill-opacity: 1;"/></g></g></g></g></g></g></g></g><g id="shape-3a12afd0-fc4f-8065-8006-9927e2b22bc8"><g class="frame-container-wrapper"><g class="frame-container-blur"><g class="frame-container-shadows"><g fill="none"><g class="fills" id="fills-3a12afd0-fc4f-8065-8006-9927e2b22bc8"><rect rx="0" ry="0" x="95.19495598289654" y="19.593189289078055" width="321.43697995885304" height="480.9651339214705" transform="matrix(1.000000, 0.000000, 0.000000, 1.000000, 0.000000, 0.000000)" class="frame-background"/></g><g class="frame-children"><g id="shape-3a12afd0-fc4f-8065-8006-9927e2b30ffd" rx="0" ry="0"><g id="shape-3a12afd0-fc4f-8065-8006-9927e2b30ffe"><g class="fills" id="fills-3a12afd0-fc4f-8065-8006-9927e2b30ffe"><path d="M199.70123291015625,64.3612060546875C201.5511474609375,60.6480712890625,204.56817626953125,60.97332763671875,210.1898193359375,57.664031982421875C223.6180419921875,49.760772705078125,247.04156494140625,36.8409423828125,265.1839599609375,26.96588134765625C270.20184326171875,24.235687255859375,274.42822265625,19.02398681640625,278.7005615234375,19.643951416015625C282.97296142578125,20.26373291015625,285.85003662109375,24.570159912109375,290.81451416015625,30.68511962890625C316.08245849609375,64.193359375,342.1290283203125,94.06405639648438,371.55889892578125,134.45596313476562C375.17230224609375,139.41732788085938,381.31304931640625,144.65719604492188,382.56103515625,149.8424072265625C383.8072509765625,155.02740478515625,380.21044921875,160.42816162109375,379.04156494140625,165.56625366210938C367.55712890625,216.065673828125,356.4776611328125,256.79034423828125,345.558349609375,293.71392822265625C368.0155029296875,283.089111328125,388.14959716796875,274.47808837890625,401.97540283203125,271.3341064453125C408.0572509765625,269.95172119140625,414.4759521484375,268.81597900390625,416.2191162109375,270.65484619140625C417.96417236328125,272.4937744140625,413.68994140625,278.4559326171875,412.438232421875,282.3638916015625C400.4954833984375,319.664794921875,388.89141845703125,358.1768798828125,363.12274169921875,417.91094970703125C351.43402099609375,445.00860595703125,352.76123046875,462.51409912109375,345.10003662109375,474.14764404296875C330.234130859375,496.7188720703125,287.32080078125,501.73858642578125,261.63134765625,500.34332275390625C230.60919189453125,498.6590576171875,175.648193359375,490.05908203125,161.11968994140625,473.715087890625C131.6455078125,440.55401611328125,128.03265380859375,390.61083984375,101.305908203125,307.386962890625C101.305908203125,307.386962890625,92.7269287109375,287.80877685546875,95.8985595703125,278.402587890625C102.89208984375,257.66473388671875,123.8414306640625,194.53628540039062,134.193603515625,167.21646118164062C136.52972412109375,161.05145263671875,136.50616455078125,155.78045654296875,139.30078125,155.08981323242188C142.0955810546875,154.399169921875,146.61151123046875,159.46212768554688,150.9619140625,163.07257080078125C163.2174072265625,173.24362182617188,179.4921875,190.67071533203125,202.67034912109375,212.99530029296875C201.30633544921875,170.41256713867188,198.1329345703125,110.7559814453125,198.42742919921875,81.27676391601562C198.513916015625,72.68453979492188,197.7408447265625,68.2967529296875,199.70123291015625,64.3612060546875Z" style="fill: rgb(33, 37, 41); fill-opacity: 1;"/></g></g><g id="shape-3a12afd0-fc4f-8065-8006-9927e2b30fff" rx="0" ry="0"><g id="shape-3a12afd0-fc4f-8065-8006-9927e2b31000"><g class="fills" id="fills-3a12afd0-fc4f-8065-8006-9927e2b31000"><path d="M294.1815185546875,490.1087646484375C301.67889404296875,488.90673828125,303.47174072265625,482.25799560546875,306.55133056640625,476.10986328125L325.2220458984375,438.779541015625C344.0694580078125,401.08837890625,363.3089599609375,363.5592041015625,382.16552734375,325.855224609375C390.08074951171875,310.01373291015625,399.389404296875,294.630615234375,406.203857421875,278.25897216796875L360.4613037109375,295.05767822265625L344.45233154296875,302.19610595703125L339.924072265625,316.52264404296875L329.7686767578125,354.7862548828125L305.49658203125,446.24560546875L294.1815185546875,490.1087646484375Z" style="fill: rgb(248, 249, 250); fill-opacity: 1;"/></g></g><g id="shape-3a12afd0-fc4f-8065-8006-9927e2b31001"><g class="fills" id="fills-3a12afd0-fc4f-8065-8006-9927e2b31001"><path d="M398.32672119140625,303.45697021484375L331.81500244140625,435.979736328125L306.84344482421875,487.30902099609375C313.75177001953125,486.28924560546875,328.3231201171875,483.104736328125,332.915771484375,477.51068115234375C340.9156494140625,467.736328125,344.47198486328125,448.76739501953125,348.89898681640625,436.91302490234375C359.717041015625,407.91021728515625,370.99346923828125,379.0804443359375,381.91644287109375,350.11993408203125C385.910888671875,339.53009033203125,389.85931396484375,328.90899658203125,394.03228759765625,318.38916015625C395.7423095703125,314.081787109375,399.27838134765625,308.0736083984375,398.32672119140625,303.45697021484375Z" style="fill: rgb(248, 249, 250); fill-opacity: 1;"/></g></g><g id="shape-3a12afd0-fc4f-8065-8006-9927e2b31002"><g class="fills" id="fills-3a12afd0-fc4f-8065-8006-9927e2b31002"><path d="M371.32110595703125,175.601806640625L230.36224365234375,489.175537109375C230.36224365234375,489.175537109375,261.9034423828125,493.62091064453125,271.4366455078125,493.8399658203125C276.9239501953125,493.96697998046875,287.55792236328125,490.49163818359375,287.55792236328125,490.49163818359375L293.84039306640625,470.51031494140625L308.18719482421875,416.37945556640625L353.72540283203125,243.72842407226562L366.79473876953125,196.13223266601562L371.32110595703125,175.601806640625Z" style="fill: rgb(248, 249, 250); fill-opacity: 1;"/></g></g><g id="shape-3a12afd0-fc4f-8065-8006-9927e2b31003"><g class="fills" id="fills-3a12afd0-fc4f-8065-8006-9927e2b31003"><path d="M206.86541748046875,66.1085205078125L206.86541748046875,67.04141235351562L272.2119140625,97.63446044921875L372.096435546875,144.50189208984375L345.0245361328125,109.03805541992188L303.3905029296875,55.842681884765625L286.58819580078125,34.377716064453125L278.70977783203125,26.751129150390625L259.14263916015625,36.384124755859375L206.86541748046875,66.1085205078125Z" style="fill: rgb(248, 249, 250); fill-opacity: 1;"/></g></g><g id="shape-3a12afd0-fc4f-8065-8006-9927e2b31004"><g class="fills" id="fills-3a12afd0-fc4f-8065-8006-9927e2b31004"><path d="M204.9989013671875,70.76113891601562L208.73193359375,218.21530151367188L256.34100341796875,198.887451171875L374.89801025390625,150.0885009765625L338.4898681640625,132.48580932617188L274.07843017578125,102.250244140625L227.40264892578125,80.22384643554688L204.9989013671875,70.76113891601562Z" style="fill: rgb(248, 249, 250); fill-opacity: 1;"/></g></g><g id="shape-3a12afd0-fc4f-8065-8006-9927e2b31005"><g class="fills" id="fills-3a12afd0-fc4f-8065-8006-9927e2b31005"><path d="M226.4693603515625,488.24224853515625L260.72015380859375,411.71685791015625L332.7596435546875,251.19635009765625L358.38287353515625,194.26754760742188L374.89801025390625,156.00448608398438L327.287109375,175.2060546875L249.80633544921875,207.08099365234375L219.9346923828125,219.4747314453125L209.29522705078125,225.4332275390625L209.58233642578125,245.59677124023438L210.5634765625,287.59344482421875L213.40008544921875,430.38018798828125L214.33331298828125,468.6456298828125L215.294189453125,484.10980224609375L226.4693603515625,488.24224853515625Z" style="fill: rgb(248, 249, 250); fill-opacity: 1;"/></g></g><g id="shape-3a12afd0-fc4f-8065-8006-9927e2b31006"><g class="fills" id="fills-3a12afd0-fc4f-8065-8006-9927e2b31006"><path d="M146.2000732421875,169.06936645507812C156.51007080078125,248.88250732421875,177.585693359375,327.70147705078125,191.08428955078125,407.0487060546875C194.371826171875,426.37286376953125,198.18035888671875,445.689697265625,202.02386474609375,464.9107666015625C203.4541015625,472.06573486328125,202.97918701171875,481.416748046875,210.61279296875,484.50921630859375L205.9814453125,295.99273681640625L205.0113525390625,246.530029296875L204.0523681640625,224.135498046875L188.20721435546875,208.26641845703125L146.2000732421875,169.06936645507812Z" style="fill: rgb(248, 249, 250); fill-opacity: 1;"/></g></g><g id="shape-3a12afd0-fc4f-8065-8006-9927e2b31007"><g class="fills" id="fills-3a12afd0-fc4f-8065-8006-9927e2b31007"><path d="M139.52081298828125,170.93478393554688C131.31036376953125,196.15982055664062,123.01885986328125,221.35781860351562,114.626708984375,246.5281982421875C111.3868408203125,256.247314453125,103.85321044921875,269.84124755859375,104.3074951171875,280.12554931640625C104.86065673828125,292.65179443359375,115.63214111328125,308.7730712890625,120.58819580078125,320.25567626953125C132.92724609375,348.84613037109375,145.11334228515625,377.50286865234375,157.3975830078125,406.115478515625C165.00836181640625,423.84368896484375,172.628662109375,441.5682373046875,180.20172119140625,459.31121826171875C184.64892578125,469.7298583984375,186.844970703125,478.63909912109375,199.26629638671875,480.77618408203125L185.62640380859375,409.8485107421875L157.0736083984375,259.59381103515625L145.4954833984375,198.00057983398438L139.52081298828125,170.93478393554688Z" style="fill: rgb(248, 249, 250); fill-opacity: 1;"/></g></g><g id="shape-3a12afd0-fc4f-8065-8006-9927e2b343c7"><g class="fills" id="fills-3a12afd0-fc4f-8065-8006-9927e2b343c7"><path d="M108.5848388671875,309.98980712890625C117.53619384765625,348.6712646484375,131.57647705078125,386.664306640625,142.72900390625,424.7806396484375C149.2813720703125,447.1751708984375,154.16650390625,466.93927001953125,179.5322265625,474.24334716796875C166.682861328125,436.508056640625,147.9854736328125,399.79620361328125,132.18487548828125,363.185546875C125.15765380859375,346.9041748046875,119.70294189453125,323.74755859375,108.5848388671875,309.98980712890625Z" style="fill: rgb(248, 249, 250); fill-opacity: 1;"/></g></g></g></g></g></g></g></g></g></g></g></svg>